<svg id="Слой_2" data-name="Слой 2" xmlns="http://www.w3.org/2000/svg" viewBox="0 0 210 170">
  <defs>
    <style>
      .cls-1 {
        fill: #00905e;
      }

      .cls-2 {
        fill: none;
      }
    </style>
  </defs>
  <title>chicken</title>
  <path class="cls-1" d="M302.3071,60.9666c-2.14-.1606-4.01-.2919-5.8772-.4454a20.27,20.27,0,0,1-2.2594-.2719,1.8536,1.8536,0,0,1-1.6748-2.512,7.4263,7.4263,0,0,1,1.2528-2.6447,9.6391,9.6391,0,0,1,8.3082-3.8031c.9516.0238,1.9019.0969,3.0008.1553-.2551-.3436-.4515-.63-.67-.8979-.6251-.7684-1.2938-1.504-1.8819-2.2993-.9841-1.3308-.7761-2.4359.6408-3.3315a7.2764,7.2764,0,0,1,5.6326-.8247A11.1942,11.1942,0,0,1,315.85,48.976q.4875.7166.9744,1.4337l.2464-.0638c0-.9106-.0291-1.8222.0061-2.7314.0731-1.8889,1.2-2.7087,3.0576-2.26a8.3708,8.3708,0,0,1,5.9121,7.0042c.1419,1.0668.1955,2.1454.2957,3.2883a4.9086,4.9086,0,0,0,.56-.07c1.8985-.4988,3.0361.1437,3.3873,2.076a6.9208,6.9208,0,0,1-2.4118,6.5729c-.3119.2914-.6409.5644-1.1617,1.0211,3.5,1.1222,5.7912,3.18,6.0149,7.0864l-7.36-.6755-.1192.2276c.5885.58,1.1827,1.1546,1.7645,1.7413a5.3241,5.3241,0,0,1,1.15,6.2353,5.668,5.668,0,0,1-5.97,2.9793,15.1149,15.1149,0,0,1-2.9287-1.295c.5533,2.2045,1.2383,4.5456,1.7225,6.9276,2.677,13.1709,2.2942,26.1969-2.0911,38.9867a79.619,79.619,0,0,1-18.39,29.4126q-6.9559,7.2572-13.6411,14.7721a48.3759,48.3759,0,0,0-8.1266,13.075,5.4639,5.4639,0,0,0-.072,4.585c1.22,2.8171,2.4013,5.6517,3.6609,8.4511a1.3917,1.3917,0,0,0,1.0389.5972c2.6715.1244,5.3464.1723,8.02.26a2.4145,2.4145,0,0,1,2.3777,1.2933c.1452.2888.7792.4356,1.2011.4633,1.8122.1191,3.6288.175,5.4442.2426a1.8587,1.8587,0,0,1,1.7878.9917,1.548,1.548,0,0,1-.3905,1.8859,1.571,1.571,0,0,1-1.0543.4875c-2.6091.0406-5.2191.0218-7.8289.0219H291.8c.1135.4475.2185.7933.2877,1.1461.3347,1.7079-.6329,2.6772-2.2969,2.1855-2.3732-.7013-4.7182-1.5-7.0681-2.278a10.9369,10.9369,0,0,0-5.2557-.63c-.629.1015-.98.2783-.9868,1.0475-.0138,1.5388-.8591,2.1682-2.3228,1.7674a51.2507,51.2507,0,0,1-5.1069-1.57,19.3621,19.3621,0,0,0-9.8318-1.0449,26.01,26.01,0,0,1-4.44.1809,1.6912,1.6912,0,0,1-1.29-.9126,1.7273,1.7273,0,0,1,.6172-1.4677c1.2362-.8722,2.58-1.5943,3.8931-2.3546,2.31-1.3375,2.2367-1.302,1.2993-3.76-3.926-10.2961-10.35-18.8607-18.0742-26.5861q-9.3866-9.3884-18.5111-19.0371a94.5968,94.5968,0,0,1-5.9429-7.41c-1.1381-1.4746-1.2318-1.5656-2.9316-.9128-4.3263,1.6615-8.0931,4.02-10.3932,8.25a21.08,21.08,0,0,0-2.1332,8.1918c-3.2426-4.4106-5.2024-9-5.2972-14.2773a19.9168,19.9168,0,0,1,5.4346-13.9341c-8.4237,3.5509-12.66,10.0333-13.2474,19.0894l-.326-.0483c-.8831-1.4915-1.81-2.9593-2.6415-4.4789a26.8587,26.8587,0,0,1-3.0274-18.1044c1.1914-6.6028,4.9762-11.4739,10.5956-14.9834a31.4562,31.4562,0,0,1,11.9635-4.2286c.4883-.0768.9727-.1807,1.4554-.2879a3.075,3.075,0,0,0,.5181-.266,4.14,4.14,0,0,0-.7953-.2839c-7.3232-.7615-14.48-.2953-21.1013,3.2914A19.6784,19.6784,0,0,0,174.01,126.6486c-.0539.5891-.1269,1.1765-.1966,1.8157-.1364-.065-.2442-.0806-.287-.1418-3.8828-5.5381-6.3409-11.5708-6.256-18.4445A20.0879,20.0879,0,0,1,170,99.5586a9.74,9.74,0,0,0,1.4773-5.3472,19.1577,19.1577,0,0,1,5.1016-13.7751,23.0466,23.0466,0,0,1,16.142-7.583,34.7392,34.7392,0,0,1,20.7848,4.8356,89.5064,89.5064,0,0,1,9.1446,6.2483,85.3513,85.3513,0,0,1,14.2082,14.7255,1.9993,1.9993,0,0,0,1.8144.8781c9.71-.1473,19.42-.2217,29.1292-.3953,8.2061-.1467,13.9441-4.32,17.7783-11.3256,2.6783-4.8937,5.1834-9.8818,7.8064-14.8061A44.025,44.025,0,0,1,301.6634,61.71C301.8253,61.5546,301.9592,61.37,302.3071,60.9666Zm-36.4981,117.97a9.4475,9.4475,0,0,0-.5374.8271,16.1044,16.1044,0,0,0-.7807,11.6678c.575,1.8827,1.562,3.6358,2.2224,5.4973a2.145,2.145,0,0,0,2.5674,1.6054c1.6729-.1371,3.3629-.0613,5.0454-.0868.2758-.0042.5508-.0568.8783-.0928a4.9147,4.9147,0,0,0-.1784-.6546c-2.1331-4.7876-4.22-9.5971-6.44-14.3442A42.0918,42.0918,0,0,0,265.809,178.9362ZM319.9265,63.0737a1.2858,1.2858,0,0,0-1.16-1.3483,1.43,1.43,0,0,0-1.3671,1.4216,1.1866,1.1866,0,0,0,1.2259,1.2686A1.34,1.34,0,0,0,319.9265,63.0737Z" transform="translate(-145 -40)"/>
  <rect class="cls-2" width="210" height="170"/>
</svg>
