<?xml version="1.0" encoding="utf-8"?>
<!-- Generator: Adobe Illustrator 19.0.0, SVG Export Plug-In . SVG Version: 6.00 Build 0)  -->
<svg version="1.1" id="Layer_1" xmlns="http://www.w3.org/2000/svg" xmlns:xlink="http://www.w3.org/1999/xlink" x="0px" y="0px"
	 viewBox="0 0 56.1 58.2" style="enable-background:new 0 0 56.1 58.2;" xml:space="preserve">
<style type="text/css">
	.st0{fill:none;stroke:#FFFFFF;stroke-linecap:round;stroke-linejoin:round;stroke-miterlimit:10;}
	.st1{opacity:0.3;fill:none;stroke:#FFFFFF;stroke-linecap:round;stroke-linejoin:round;stroke-miterlimit:10;}
</style>
<path class="st0" d="M50.9,25.4h2.3c1.3,0,2.4-0.9,2.4-2c0-1.1-1.1-2-2.4-2h-2.3v-2.6h2.3c1.3,0,2.4-0.9,2.4-2s-1.1-2-2.4-2h-2.3
	v-2.6h2.3c1.3,0,2.4-0.9,2.4-2s-1.1-2-2.4-2h-2.3v0V7c0-1.3-0.9-2.4-2-2.4s-2,1.1-2,2.4v0.6c0,8.3-6.8,15-15,15h-1
	c-7.7,0-14-5.8-14.9-13.2V8.9L18,7.7c1.1-0.7,1.6-2,1.1-2.9c-0.6-1-1.9-1.2-3.1-0.5L14.6,5l0,0l0.6-1.5c0.5-1.2,0-2.5-1.1-2.9
	c-1-0.4-2.2,0.3-2.7,1.5l-0.6,1.5l-0.6-1.5C9.9,0.9,8.6,0.2,7.6,0.6C6.6,1,6.1,2.3,6.5,3.5L7.1,5l0,0L5.7,4.2
	C4.6,3.6,3.2,3.8,2.6,4.8C2.1,5.7,2.6,7,3.7,7.7L5.9,9l-5.4,2.6l2,1.4"/>
<path class="st0" d="M5.1,14.7v15.9c0,7.8,7.1,14.3,16.4,15.7v1.5c0,2.4,1.7,4.4,4,4.9v4.4h1.8v-4.4c2.5-0.3,4.5-2.4,4.5-4.9v-1.3
	c10.6-0.4,19.1-7.4,19.1-15.9v-2.1"/>
<path class="st0" d="M21.9,57.7c0,0,1.8-0.6,3.6-0.6c1.8,0,1.8,0,1.8,0s1.2,0.1,2.2,0.6"/>
<path class="st0" d="M41.4,38.5c0,0-12.6-14.8-25.2-14.7c0,0-5.9-0.1-5.9,5.1c0,4.8,7.6,12.5,25.5,10.5"/>
<path class="st1" d="M13,28c0,4.1,6.6,10.8,22,9.1"/>
</svg>
