<?xml version="1.0" encoding="utf-8"?>
<!-- Generator: Adobe Illustrator 19.0.0, SVG Export Plug-In . SVG Version: 6.00 Build 0)  -->
<svg version="1.1" id="Layer_1" xmlns="http://www.w3.org/2000/svg" xmlns:xlink="http://www.w3.org/1999/xlink" x="0px" y="0px"
	 viewBox="0 0 80.4 66.7" style="enable-background:new 0 0 80.4 66.7;" xml:space="preserve">
<style type="text/css">
	.st0{fill:none;stroke:#FFFFFF;stroke-linecap:round;stroke-linejoin:round;stroke-miterlimit:10;}
	.st1{fill:none;stroke:#FFFFFF;stroke-miterlimit:10;}
	.st2{opacity:0.3;fill:none;stroke:#FFFFFF;stroke-linecap:round;stroke-linejoin:round;stroke-miterlimit:10;}
	.st3{opacity:0.3;}
	.st4{fill:none;stroke:#FFFFFF;stroke-linecap:round;stroke-linejoin:round;}
	.st5{fill:none;stroke:#FFFFFF;stroke-linecap:round;stroke-linejoin:round;stroke-dasharray:0,2.112;}
</style>
<polyline class="st0" points="10.3,36.2 10.3,66.2 33,66.2 47.9,66.2 70.4,66.2 70.4,35.2 "/>
<polyline class="st0" points="5.4,29.2 40.2,0.5 75,29.2 "/>
<circle class="st1" cx="40.2" cy="41.4" r="18"/>
<circle class="st1" cx="40.2" cy="41.4" r="3"/>
<path class="st1" d="M40.2,23.4c-1.6,0-3.2,1.3-3.2,4.5c0,4,1.9,7.3,3.2,7.3c1.3,0,3.2-3.3,3.2-7.3C43.4,24.7,41.7,23.4,40.2,23.4z"
	/>
<path class="st1" d="M27.5,54.1c1.1,1.1,3.2,1.4,5.5-0.9c2.8-2.8,3.8-6.5,2.9-7.5c-1-1-4.6,0-7.5,2.9C26.1,50.9,26.4,53,27.5,54.1z"
	/>
<path class="st1" d="M52.9,54.1c1.1-1.1,1.4-3.2-0.9-5.5c-2.8-2.8-6.5-3.8-7.5-2.9c-1,1,0,4.6,2.9,7.5
	C49.7,55.5,51.8,55.2,52.9,54.1z"/>
<path class="st2" d="M5.4,24.3c-2.7,0-4.9,2.2-4.9,4.9c0,2.7,2.2,4.9,4.9,4.9c1.2,0,2.3-0.4,3.1-1.1l19.8-16.3"/>
<g class="st3">
	<g>
		<line class="st4" x1="30.4" y1="14.9" x2="30.4" y2="14.9"/>
		<line class="st5" x1="32" y1="13.6" x2="39.4" y2="7.5"/>
		<line class="st4" x1="40.2" y1="6.9" x2="40.2" y2="6.9"/>
	</g>
</g>
<path class="st2" d="M75,24.3c2.7,0,4.9,2.2,4.9,4.9c0,2.7-2.2,4.9-4.9,4.9c-1.2,0-2.3-0.4-3.1-1.1L42.1,8.4"/>
</svg>
