<?xml version="1.0" encoding="utf-8"?>
<!-- Generator: Adobe Illustrator 19.0.0, SVG Export Plug-In . SVG Version: 6.00 Build 0)  -->
<svg version="1.1" id="Layer_1" xmlns="http://www.w3.org/2000/svg" xmlns:xlink="http://www.w3.org/1999/xlink" x="0px" y="0px"
	 viewBox="0 0 73.2 40.4" style="enable-background:new 0 0 73.2 40.4;" xml:space="preserve">
<style type="text/css">
	.st0{fill:none;stroke:#FFFFFF;stroke-linecap:round;stroke-linejoin:round;stroke-miterlimit:10;}
	.st1{opacity:0.3;fill:none;stroke:#FFFFFF;stroke-linecap:round;stroke-miterlimit:10;}
</style>
<g>
	<path class="st0" d="M18.8,25.9h-4.2h-4.2c0,0-6-3.9-6-7.9c0-4,3.9-5.6,3.9-9.2C5.6,8.6,4.8,8.4,2.6,8.4c-2.2,0-2.1-2.1-2.1-2.1
		V0.5h3l4.8,4.6c0,0,1.9-1.8,5.7-1.8"/>
	<polyline class="st0" points="18.8,25.9 18.8,36.5 16.9,39.9 20.7,39.9 27.1,28.8 43.7,28.8 	"/>
	<path class="st0" d="M28.7,4.7h26.1C54.8,4.7,66,5.5,66,16c0,0,0.1,3.1-0.8,5.5C64.3,23.9,54,39.9,54,39.9h-4.1l3.2-5.6l-7.6-12
		c0,0-2.6-3.9,0.6-6.1c3.2-2.2,6.2-4.3,6.2-4.3"/>
	<polyline class="st0" points="28.9,33.3 25.9,38.9 29.7,38.9 33.6,32.1 	"/>
	<polyline class="st0" points="60.9,35.2 60.9,38.9 64.6,38.9 64.6,28 	"/>
	<path class="st0" d="M71.2,6.4c0-1.7-1.3-3-3-3c-1.7,0-3,1.3-3,3c0,1.7,1.3,3,3,3h4.5"/>
	<path class="st0" d="M10.8,19.2c0,0,3.8-3.1,7.2,0"/>
	<line class="st0" x1="13.3" y1="20.9" x2="13.3" y2="22.6"/>
	<line class="st0" x1="16" y1="20.9" x2="16" y2="22.6"/>
	<path class="st0" d="M18.8,25.9c0,0,6-3.9,6-7.9c0-4-3.9-5.6-3.9-9.2c2.7-0.2,3.5-0.3,5.7-0.3c2.2,0,2.1-2.1,2.1-2.1V0.5h-3
		l-4.8,4.6"/>
</g>
<line class="st1" x1="27.2" y1="25.9" x2="43.7" y2="25.9"/>
</svg>
