<?xml version="1.0" encoding="utf-8"?>
<!-- Generator: Adobe Illustrator 18.0.0, SVG Export Plug-In . SVG Version: 6.00 Build 0)  -->
<!DOCTYPE svg PUBLIC "-//W3C//DTD SVG 1.1//EN" "http://www.w3.org/Graphics/SVG/1.1/DTD/svg11.dtd">
<svg version="1.1" id="Layer_1" xmlns="http://www.w3.org/2000/svg" xmlns:xlink="http://www.w3.org/1999/xlink" x="0px" y="0px"
	 viewBox="0 0 242.1 64" width="122" height="32" enable-background="new 0 0 242.1 64" xml:space="preserve">
<path fill="#ffffff" d="M32,0c-5.7,0-11.3,1.5-16.1,4.4l16.2,27l16.1-27C43.3,1.5,37.7,0,32,0z"/>
<polygon fill="#ffffff" points="174.5,43.9 153.5,43.9 153.5,60.4 174.7,60.4 "/>
<path fill="#ffffff" d="M51.2,6.4L32,38.6L12.8,6.4C4.8,12.5,0,22,0,32c0,17.7,14.4,32,32,32c17.7,0,32-14.4,32-32
	C64,22,59.3,12.5,51.2,6.4z"/>
<path fill="#ffffff" d="M60.8,53.1v7.3H89V4.1H60.8V11c4.5,6.2,6.9,13.4,6.9,21.1C67.7,39.6,65.4,46.9,60.8,53.1z"/>
<path fill="#ffffff" d="M115,29.1l-1.7-1.2l1.4-1.6c0.1-0.1,2.3-2.7,2.3-8.2c0-13.8-14.5-14-15.1-14h-9.2v56.3h9.5
	c0.8,0,19.1-0.3,19.1-18.4C121.2,33.5,115.3,29.2,115,29.1z"/>
<path fill="#ffffff" d="M121.8,54.1v6.3h28V4.1h-28v26.9c2.1,3.3,3.2,7,3.2,11C125,46.7,123.9,50.8,121.8,54.1z"/>
<rect x="153.5" y="4.1" fill="#ffffff" width="17.4" height="15.8"/>
<polygon fill="#ffffff" points="174.4,23.7 153.5,23.7 153.5,40.2 174.5,40.2 "/>
<polygon fill="#ffffff" points="178.4,60.4 206.2,60.4 206.2,4.1 174.6,4.1 174.6,20 178.1,20 "/>
<polygon fill="#ffffff" points="209.9,40.2 214.4,40.2 214.4,60.4 242.1,60.4 242.1,4.1 214.4,4.1 214.4,23.7 209.9,23.7 "/>
</svg>
