<svg id="Слой_1_копия3_" data-name="Слой 1 (копия3)" xmlns="http://www.w3.org/2000/svg" width="732.0943" height="67.8608" viewBox="0 0 732.0943 67.8608">
  <defs>
    <style>
      .cls-1 {
        fill: #ef3c24;
      }

      .cls-2 {
        fill: #008f86;
      }

      .cls-3 {
        fill: #099;
      }

      .cls-4 {
        fill: #fff;
        stroke: #099;
        stroke-miterlimit: 10;
        stroke-width: 3px;
      }
    </style>
  </defs>
  <title>logo-3</title>
  <path class="cls-1" d="M39.5312,8.39a31.2216,31.2216,0,0,0-16.1283,4.4077L39.6313,39.8448,55.76,12.7974A31.8446,31.8446,0,0,0,39.5312,8.39Z" transform="translate(-7.475 -5.1724)"/>
  <polygon class="cls-2" points="174.806 47.194 153.769 47.194 153.769 63.723 175.007 63.723 174.806 47.194"/>
  <path class="cls-2" d="M58.7649,14.8009,39.5312,47.0574,20.2975,14.8009A32.4085,32.4085,0,0,0,7.475,40.4459a32.0562,32.0562,0,1,0,51.29-25.6449Z" transform="translate(-7.475 -5.1724)"/>
  <path class="cls-2" d="M68.3817,61.5829v7.3128h28.25V12.4969h-28.25V19.409a35.5841,35.5841,0,0,1,6.9121,21.137A35.0575,35.0575,0,0,1,68.3817,61.5829Z" transform="translate(-7.475 -5.1724)"/>
  <path class="cls-2" d="M122.6769,37.5408l-1.703-1.2021,1.4025-1.6028c.1-.1,2.304-2.7047,2.304-8.2144,0-13.8242-14.5255-14.0246-15.1265-14.0246h-9.2161V68.8957h9.5167c.8014,0,19.1335-.3005,19.1335-18.4323A16.07,16.07,0,0,0,122.6769,37.5408Z" transform="translate(-7.475 -5.1724)"/>
  <path class="cls-2" d="M129.4888,62.5847v6.3111H157.538V12.4969H129.4888V39.4441a20.2271,20.2271,0,0,1,3.2056,11.0193A22.3016,22.3016,0,0,1,129.4888,62.5847Z" transform="translate(-7.475 -5.1724)"/>
  <rect class="cls-2" x="153.7695" y="7.3244" width="17.4305" height="15.8277"/>
  <polygon class="cls-2" points="174.706 26.959 153.769 26.959 153.769 43.488 174.806 43.488 174.706 26.959"/>
  <polygon class="cls-2" points="178.713 63.723 206.562 63.723 206.562 7.324 174.907 7.324 174.907 23.252 178.413 23.252 178.713 63.723"/>
  <polygon class="cls-2" points="210.268 43.488 214.776 43.488 214.776 63.723 242.525 63.723 242.525 7.324 214.776 7.324 214.776 26.959 210.268 26.959 210.268 43.488"/>
  <path class="cls-3" d="M295.73,24.0864V22.4935a4.8987,4.8987,0,0,1,.7964-2.19,2.959,2.959,0,0,0,.3982-1.7919,3.3875,3.3875,0,0,1,.1991-1.3936,6.0035,6.0035,0,0,1,4.9774-4.181,9.5963,9.5963,0,0,1,2.3892,0,3.3889,3.3889,0,0,1,1.3937.199,13.5534,13.5534,0,0,1,4.181,1.991,22.7629,22.7629,0,0,1,4.9774,4.7784.7315.7315,0,0,0,.5973.199h5.7738a15.0726,15.0726,0,0,0,2.9865-.199,4.9909,4.9909,0,0,0,3.9819-2.5884c.7964-1.1945,1.3937-2.3891,1.991-3.3846A14.3028,14.3028,0,0,1,333.16,9.9506a.195.195,0,0,1,.1991-.199h-.3982a5.5132,5.5132,0,0,1-1.7919-.199c-.5973,0-.5973-.3981-.5973-.7964,0-.199,0-.199.1991-.3981a2.2879,2.2879,0,0,1,1.7919-1.1945h1.3937v-.199q-.2987-.2986-.5973-.5974c-.1991-.3981-.1991-.5974.1991-.7964.1991-.199.5973-.199.7964-.3981h.5973c.5973.199.9955.199,1.3937.5974.3982.199.5973.5974.9955.9955l.1991.199V6.1679c0-.3981.3982-.5974.7964-.5974a2.1117,2.1117,0,0,1,1.7919,1.7919v.7964c0,.199,0,.199.1991.199.5973-.199.9955.199.9955.7964a1.811,1.811,0,0,1-.7964,1.5929c-.1991.199-.1991.199,0,.3981a1.929,1.929,0,0,1,1.3937,1.5929v.3981h-.3982a2.5259,2.5259,0,0,1-1.1946-.199h-.3982c0,.199.1991.199.1991.3981a2.7461,2.7461,0,0,1,.5973.7964,1.6057,1.6057,0,0,1-.5973,1.7919,1.4935,1.4935,0,0,1-1.7919,0h-.1991v.199a28.1882,28.1882,0,0,1,.7964,3.9819,18.7487,18.7487,0,0,1-.1991,5.7739,20.14,20.14,0,0,1-4.9774,9.5567,33.9405,33.9405,0,0,1-3.7828,3.7829,16.0607,16.0607,0,0,0-3.3846,4.7784,1.7,1.7,0,0,0,0,1.3936,8.32,8.32,0,0,1,.7964,1.991c.1991.199.1991.3981.5973.3981h2.19a.7315.7315,0,0,1,.5973.199c.1991.3981.3982.199.7964.3981h1.3937c.1991,0,.3982.199.3982.5974,0,.199-.1991.3981-.5973.3981h-1.991c-.3982,0-.3982,0-.3982.3981a.528.528,0,0,1-.5973.5974h-.3982q-.8959-.2986-1.7919-.5974a2.9527,2.9527,0,0,0-1.3937-.199c-.1991,0-.1991,0-.1991.199,0,.3981-.1991.5974-.7964.3981-.3982-.199-.9955-.199-1.3937-.3981a4.4813,4.4813,0,0,0-2.7873-.199h-1.1946a.6951.6951,0,0,1-.3982-.199c0-.199,0-.3981.1991-.3981.1991-.199.3982-.199.5973-.3981.3982-.199.5973-.3981.9955-.5974.1991,0,.1991-.199.1991-.3981-.1991-.199-.1991-.5974-.3982-.7964a19.3873,19.3873,0,0,0-2.9865-4.7784q-1.7919-1.7918-3.5838-3.5838l-4.38-4.38a4.1646,4.1646,0,0,1-.7964-1.1945.7315.7315,0,0,0-.5973-.199c-.1991.199-.5973.199-.7964.3981a3.9034,3.9034,0,0,0-2.5883,3.1855,1.1971,1.1971,0,0,1-.1991.7964v.199a.195.195,0,0,1-.1991-.199c-.1991-.3981-.5973-.7964-.7964-1.1945a5.1426,5.1426,0,0,1,.5973-5.9729l.1991-.199h0c-.1991,0-.3982.199-.5973.3981a5.8319,5.8319,0,0,0-2.5883,3.1855c-.1991.3981-.1991.9955-.3982,1.3936v.199l-.1991-.199A13.39,13.39,0,0,1,299.911,32.25a6.0754,6.0754,0,0,1,0-4.5793,6.4486,6.4486,0,0,1,3.7828-3.7829,6.1323,6.1323,0,0,1,2.5883-.5974h0a8.838,8.838,0,0,0-4.5792.3981,6.3127,6.3127,0,0,0-3.7828,2.9865,7.058,7.058,0,0,0-.5973,2.19v.199l-.1991-.199A20.1511,20.1511,0,0,1,295.73,24.0864ZM324.798,47.1816h.7964c.1991,0,.3982,0,.1991-.199-.5973-1.1945-.9955-2.3891-1.5928-3.5838a4.1652,4.1652,0,0,0-.7964-1.1945c-.1991-.199-.1991-.199-.1991,0a5.1221,5.1221,0,0,0-.1991,2.9865,7.073,7.073,0,0,0,.7964,1.7919c0,.199.1991.199.3982.199Zm13.14-36.6336c0,.199.1991.199.3982.199a.3981.3981,0,1,0,0-.7962C338.1375,10.15,337.9384,10.3487,337.9384,10.548Z" transform="translate(-7.475 -5.1724)"/>
  <g>
    <path class="cls-3" d="M284.1823,33.2448c.5973-1.1945,1.1946-1.1945,2.19-.5974a11.3968,11.3968,0,0,1,1.3937.7964,4.4449,4.4449,0,0,1,.5973-2.7874,3.7437,3.7437,0,0,1,3.3846-1.5929,2.986,2.986,0,0,1,2.7873,2.19,3.2344,3.2344,0,0,1-.9955,3.3846,7.721,7.721,0,0,1-2.19,1.1945c-.1991,0-.3982.3981-.5973.199,4.38,4.181.9955,5.5748-2.19.3981q-.2987-.2986-.5973-.5974a6.4643,6.4643,0,0,1-3.5838-1.991m5.7739-.3974.1991.199a5.9555,5.9555,0,0,0,1.5928-.7964.8862.8862,0,0,0,.3982-1.1945,1.0952,1.0952,0,0,0-.9955-.5974c-.5973,0-.7964.199-.9955.7964a4.948,4.948,0,0,0-.1991,1.5929" transform="translate(-7.475 -5.1724)"/>
    <path class="cls-4" d="M292.7434,39.2177a15.2089,15.2089,0,0,1,1.7919-1.7919,23.2476,23.2476,0,0,1,10.95-5.1765,28.44,28.44,0,0,1,21.9007,4.38,16.1815,16.1815,0,0,1,3.7828,3.5838,22.9851,22.9851,0,0,0,5.9729-3.1855,1.3445,1.3445,0,0,1,1.1946-.7964c.5973,0,.7964.3981.9955.7964a7.1466,7.1466,0,0,1-4.38,9.9548c-.1991,0-.1991,0-.3982.199.3982.9955.5973,2.19.9955,3.1855.3982,1.1945.7964,1.3936,1.991,1.3936a4.3848,4.3848,0,0,1,1.5928.199c.7964.199.9955.9955.7964,1.7919-.1991,1.1945-.5973,2.19-.7964,3.3846a3.76,3.76,0,0,1-2.5883,2.5884,44.8168,44.8168,0,0,1-4.7783,1.5929c-.3982.199-.5973.199-.5973.7964.1991,2.19.1991,4.38.3982,6.371,0,.9955-.1991,1.7919-.9955,1.991a2.7653,2.7653,0,0,1-3.5838-1.3936,20.7541,20.7541,0,0,1-2.19-6.7693c0-.199-.1991-.199-.3982-.199h-.7964V62.91a52.1661,52.1661,0,0,0,.1991,5.5748c0,1.1945-.5973,1.991-1.7919,1.991h-.5973a2.4144,2.4144,0,0,1-2.3892-1.3936,30.0886,30.0886,0,0,1-2.5883-5.7739c-.1991-.3981-.3982-.3981-.7964-.3981h-4.38V65.3c.1991,1.1945.1991,2.3891.3982,3.5838.1991.9955-.3982,1.5929-1.3937,1.7919a3.3389,3.3389,0,0,1-3.5838-1.7919,19.3755,19.3755,0,0,1-2.19-4.5793,8.7536,8.7536,0,0,0-1.1946-2.3891c-1.3937-.3981-1.3937-.3981-1.991.7964a13.8,13.8,0,0,0-1.7919,6.172,1.6262,1.6262,0,0,1-1.7919,1.5929,2.9655,2.9655,0,0,1-3.3846-1.991,34.0662,34.0662,0,0,1-2.5883-8.76,56.5863,56.5863,0,0,1-.9955-11.5477,17.2794,17.2794,0,0,1,1.991-8.362c0-.199,1.3937-1.991,0-.3981" transform="translate(-7.475 -5.1724)"/>
  </g>
  <g>
    <path class="cls-2" d="M364.6279,31.9878h-4.3242V7.9937H370.13q4.2012,0,6.2314,2.1182a6.9871,6.9871,0,0,1,2.03,5.001,6.9291,6.9291,0,0,1-2.1973,5.3262,7.871,7.871,0,0,1-5.5723,2.0391h-5.9941Zm0-13.2187h5.1152a4.3233,4.3233,0,0,0,3.0586-.9844,3.4124,3.4124,0,0,0,1.0547-2.6191,3.5971,3.5971,0,0,0-.9756-2.5312q-.9756-1.0547-3.5244-1.0547h-4.7285Z" transform="translate(-7.475 -5.1724)"/>
    <path class="cls-2" d="M397.4639,31.9878H381.8721V7.9937h15.4336V11.562H386.1963v6.5039h8.93v3.48h-8.93v6.7148h11.2676Z" transform="translate(-7.475 -5.1724)"/>
    <path class="cls-2" d="M401.4365,31.9878V7.9937h4.3242V28.2612h7.4355V7.9937h4.3242V28.2612h7.4355V7.9937H429.28V31.9878Z" transform="translate(-7.475 -5.1724)"/>
    <path class="cls-2" d="M450.374,31.9878H434.7822V7.9937h15.4336V11.562H439.1064v6.5039h8.93v3.48h-8.93v6.7148H450.374Z" transform="translate(-7.475 -5.1724)"/>
    <path class="cls-2" d="M471.9072,31.9878H467.583V21.564h-9.1582V31.9878h-4.3242V7.9937h4.3242V17.855h9.1582V7.9937h4.3242Z" transform="translate(-7.475 -5.1724)"/>
    <path class="cls-2" d="M481.5049,29.8081v2.18h-4.3242V7.9937h4.3242V21.4585q0,1.6348-.123,3.6211a31.4,31.4,0,0,1,2.83-4.7812l7.0664-9.8789V7.9937h4.3066V31.9878h-4.3066V19.56q0-3.2344.1055-4.3945a36.2956,36.2956,0,0,1-2.8477,4.7637Z" transform="translate(-7.475 -5.1724)"/>
    <path class="cls-2" d="M513.9541,22.021h-6.0469l-4.3945,9.9668h-4.3418L504.2334,21.23a6.124,6.124,0,0,1-4.3945-6.1348A6.5473,6.5473,0,0,1,502.01,9.8833a8.4834,8.4834,0,0,1,5.7744-1.89h10.4941V31.9878h-4.3242Zm0-10.5293h-5.4668a4.6055,4.6055,0,0,0-3.1025.9229,3.1255,3.1255,0,0,0-1.0635,2.4873,3.5917,3.5917,0,0,0,1.09,2.6367,4.6552,4.6552,0,0,0,3.41,1.09h5.1328Z" transform="translate(-7.475 -5.1724)"/>
    <path class="cls-2" d="M359.2842,64.2617l6.3281-20.2676h6.4512l5.6953,20.2676h1.7578v8.7715h-3.0059l-.5273-5.0449H361.06l-.5273,5.0449h-3.0059V64.2617Zm3.6914,0h10.2129L369.0225,48.02h-1.3008Z" transform="translate(-7.475 -5.1724)"/>
    <path class="cls-2" d="M382.5752,67.9883h-3.7617l7.6113-23.9941h5.4844l7.5762,23.9941h-4.6406L388.78,48.02h-.2461Z" transform="translate(-7.475 -5.1724)"/>
    <path class="cls-2" d="M414.708,58.0215h-6.0469l-4.3945,9.9668h-4.3418L404.9873,57.23a6.124,6.124,0,0,1-4.3945-6.1348,6.5494,6.5494,0,0,1,2.1709-5.2129,8.4829,8.4829,0,0,1,5.7744-1.8887h10.4941V67.9883H414.708Zm0-10.5293h-5.4668a4.6054,4.6054,0,0,0-3.1025.9219,3.1275,3.1275,0,0,0-1.0635,2.4883,3.5917,3.5917,0,0,0,1.09,2.6367,4.6552,4.6552,0,0,0,3.41,1.09h5.1328Z" transform="translate(-7.475 -5.1724)"/>
    <path class="cls-2" d="M452.0088,54.2949l8.8594,13.6934h-4.834l-7.3125-11.2676-1.3887.4219V67.9883H443.22V57.1426l-1.4062-.4219-7.2949,11.2676h-4.2539l8.2969-12.498-7.6641-11.4961h4.7461l6.68,10.0547.8965.2461V43.9941h4.1133V54.2949l.8965-.2461,6.68-10.0547h4.2539Z" transform="translate(-7.475 -5.1724)"/>
    <path class="cls-2" d="M466.6865,65.8086v2.18h-4.3242V43.9941h4.3242V57.459q0,1.6348-.123,3.6211a31.4,31.4,0,0,1,2.83-4.7812L476.46,46.42V43.9941h4.3066V67.9883H476.46V55.5605q0-3.2344.1055-4.3945a36.2956,36.2956,0,0,1-2.8477,4.7637Z" transform="translate(-7.475 -5.1724)"/>
    <path class="cls-2" d="M486.0576,67.9883V43.9941h9.3516a13.3323,13.3323,0,0,1,3.9375.4922,5.339,5.339,0,0,1,2.707,2.0566,6.061,6.061,0,0,1,1.1426,3.6738,5.4022,5.4022,0,0,1-1.16,3.4531,5.212,5.212,0,0,1-3.1992,1.873,6.0216,6.0216,0,0,1,3.832,2.0566,5.9269,5.9269,0,0,1,1.3008,3.832,6.4666,6.4666,0,0,1-1.8193,4.666q-1.8193,1.89-5.5986,1.8906Zm4.0957-13.9219h5.2734a3.2757,3.2757,0,0,0,3.498-3.4277,2.8139,2.8139,0,0,0-1.0723-2.4355,4.15,4.15,0,0,0-2.5137-.7812h-5.1855Zm0,10.3184h5.59a4.02,4.02,0,0,0,2.8037-.9316,3.5222,3.5222,0,0,0-.0176-4.9922,3.917,3.917,0,0,0-2.7686-.9668h-5.6074Z" transform="translate(-7.475 -5.1724)"/>
    <path class="cls-2" d="M516.7666,68.3574a8.7418,8.7418,0,0,1-7.4443-3.5859,14.445,14.445,0,0,1-2.6631-8.8594,13.5515,13.5515,0,0,1,2.83-8.7637A9.1089,9.1089,0,0,1,516.96,43.625a8.831,8.831,0,0,1,7.3916,3.5234,14.0176,14.0176,0,0,1,2.7158,8.8164,13.6421,13.6421,0,0,1-2.8213,8.9727A9.214,9.214,0,0,1,516.7666,68.3574Zm.0352-3.48a4.9733,4.9733,0,0,0,3.9551-1.9336Q522.374,61.01,522.374,55.93a13.1607,13.1607,0,0,0-1.3359-6.4785,4.4459,4.4459,0,0,0-4.1484-2.3457q-5.5547,0-5.5547,8.9473a12.443,12.443,0,0,0,1.415,6.582A4.52,4.52,0,0,0,516.8018,64.877Z" transform="translate(-7.475 -5.1724)"/>
    <path class="cls-2" d="M539.0381,67.9883h-4.6406V47.7031h-6.3809v-3.709h17.4023v3.709h-6.3809Z" transform="translate(-7.475 -5.1724)"/>
    <path class="cls-2" d="M565.8623,67.9883h-4.3242V57.5645H552.38V67.9883h-4.3242V43.9941H552.38v9.8613h9.1582V43.9941h4.3242Z" transform="translate(-7.475 -5.1724)"/>
    <path class="cls-2" d="M579.9775,68.3574a8.7418,8.7418,0,0,1-7.4443-3.5859,14.445,14.445,0,0,1-2.6631-8.8594,13.5515,13.5515,0,0,1,2.83-8.7637,9.1089,9.1089,0,0,1,7.4707-3.5234,8.831,8.831,0,0,1,7.3916,3.5234,14.0176,14.0176,0,0,1,2.7158,8.8164,13.6421,13.6421,0,0,1-2.8213,8.9727A9.214,9.214,0,0,1,579.9775,68.3574Zm.0352-3.48a4.9733,4.9733,0,0,0,3.9551-1.9336Q585.585,61.01,585.585,55.93a13.1607,13.1607,0,0,0-1.3359-6.4785,4.4459,4.4459,0,0,0-4.1484-2.3457q-5.5547,0-5.5547,8.9473a12.443,12.443,0,0,0,1.415,6.582A4.52,4.52,0,0,0,580.0127,64.877Z" transform="translate(-7.475 -5.1724)"/>
    <path class="cls-2" d="M594.3037,67.9883V43.9941h9.3516a13.3323,13.3323,0,0,1,3.9375.4922A5.339,5.339,0,0,1,610.3,46.543a6.061,6.061,0,0,1,1.1426,3.6738,5.4022,5.4022,0,0,1-1.16,3.4531,5.212,5.212,0,0,1-3.1992,1.873A6.0216,6.0216,0,0,1,610.915,57.6a5.9269,5.9269,0,0,1,1.3008,3.832,6.4666,6.4666,0,0,1-1.8193,4.666q-1.8193,1.89-5.5986,1.8906Zm4.0957-13.9219h5.2734a3.2757,3.2757,0,0,0,3.498-3.4277,2.8139,2.8139,0,0,0-1.0723-2.4355,4.15,4.15,0,0,0-2.5137-.7812h-5.1855Zm0,10.3184h5.59a4.02,4.02,0,0,0,2.8037-.9316,3.5222,3.5222,0,0,0-.0176-4.9922,3.917,3.917,0,0,0-2.7686-.9668h-5.6074Z" transform="translate(-7.475 -5.1724)"/>
    <path class="cls-2" d="M625.0127,68.3574a8.7418,8.7418,0,0,1-7.4443-3.5859,14.445,14.445,0,0,1-2.6631-8.8594,13.5515,13.5515,0,0,1,2.83-8.7637,9.1089,9.1089,0,0,1,7.4707-3.5234,8.831,8.831,0,0,1,7.3916,3.5234,14.0176,14.0176,0,0,1,2.7158,8.8164,13.6421,13.6421,0,0,1-2.8213,8.9727A9.214,9.214,0,0,1,625.0127,68.3574Zm.0352-3.48a4.9733,4.9733,0,0,0,3.9551-1.9336Q630.62,61.01,630.62,55.93a13.1607,13.1607,0,0,0-1.3359-6.4785,4.4459,4.4459,0,0,0-4.1484-2.3457q-5.5547,0-5.5547,8.9473a12.443,12.443,0,0,0,1.415,6.582A4.52,4.52,0,0,0,625.0479,64.877Z" transform="translate(-7.475 -5.1724)"/>
    <path class="cls-2" d="M637.88,64.2617l6.3281-20.2676h6.4512l5.6953,20.2676h1.7578v8.7715h-3.0059l-.5273-5.0449H639.6553l-.5273,5.0449h-3.0059V64.2617Zm3.6914,0h10.2129L647.6182,48.02h-1.3008Z" transform="translate(-7.475 -5.1724)"/>
    <path class="cls-2" d="M674.0029,59.6563l4.0078.4395a9.3763,9.3763,0,0,1-2.7861,5.9316,8.6645,8.6645,0,0,1-6.3018,2.33,8.2324,8.2324,0,0,1-5.335-1.6523,10.5493,10.5493,0,0,1-3.1553-4.4824,16.9864,16.9864,0,0,1-1.1074-6.24,14.3875,14.3875,0,0,1,2.6016-8.9219,9.1515,9.1515,0,0,1,13.0957-1.2383,10.3564,10.3564,0,0,1,2.9883,6.293l-4.0078.4219q-1.1074-5.4316-4.8867-5.4316a4.1826,4.1826,0,0,0-3.7705,2.2578,12.96,12.96,0,0,0-1.3447,6.5488q0,4.3594,1.4414,6.582a4.3732,4.3732,0,0,0,3.8145,2.2246,4.184,4.184,0,0,0,3.2344-1.4941A5.962,5.962,0,0,0,674.0029,59.6563Z" transform="translate(-7.475 -5.1724)"/>
    <path class="cls-2" d="M690.0342,67.9883h-4.6406V47.7031h-6.3809v-3.709H696.415v3.709h-6.3809Z" transform="translate(-7.475 -5.1724)"/>
    <path class="cls-2" d="M699.0518,67.9883V43.9941h9.3516a13.3323,13.3323,0,0,1,3.9375.4922,5.339,5.339,0,0,1,2.707,2.0566,6.061,6.061,0,0,1,1.1426,3.6738,5.4022,5.4022,0,0,1-1.16,3.4531,5.212,5.212,0,0,1-3.1992,1.873,6.0216,6.0216,0,0,1,3.832,2.0566,5.9269,5.9269,0,0,1,1.3008,3.832,6.4666,6.4666,0,0,1-1.8193,4.666q-1.8193,1.89-5.5986,1.8906Zm4.0957-13.9219h5.2734a3.2757,3.2757,0,0,0,3.498-3.4277,2.8139,2.8139,0,0,0-1.0723-2.4355,4.15,4.15,0,0,0-2.5137-.7812h-5.1855Zm0,10.3184h5.59a4.02,4.02,0,0,0,2.8037-.9316,3.5222,3.5222,0,0,0-.0176-4.9922,3.917,3.917,0,0,0-2.7686-.9668h-5.6074Z" transform="translate(-7.475 -5.1724)"/>
    <path class="cls-2" d="M739.5693,67.9883h-4.623l-1.916-5.7129h-9.2285l-1.8809,5.7129h-3.6914l7.9629-23.9941h5.3262ZM731.87,58.8125l-3.498-10.7051-3.498,10.7051Z" transform="translate(-7.475 -5.1724)"/>
  </g>
  <path class="cls-2" d="M272.88,39.9738c.0007,9.33.043,18.66-.0359,27.9892-.0153,1.8135.7156,4.4916-2.4424,4.4578-2.782-.03-2.246-2.46-2.25-4.1576q-.0678-28.7391.0024-57.4784c.0042-1.6867-.5779-4.1221,2.1995-4.2035,3.1807-.0932,2.4759,2.5866,2.49,4.4036C272.92,20.6473,272.8793,30.3107,272.88,39.9738Z" transform="translate(-7.475 -5.1724)"/>
</svg>
