<svg id="Слой_2_копия_" data-name="Слой 2 (копия)" xmlns="http://www.w3.org/2000/svg" viewBox="0 0 227 170">
  <defs>
    <style>
      .cls-1 {
        fill: #034ea2;
      }

      .cls-2 {
        fill: none;
      }
    </style>
  </defs>
  <title>pig</title>
  <g>
    <path class="cls-1" d="M151.5888,72.1545c-1.2149-11.1675,2.3093-17.0935,11.0191-18.8361,7.1294-1.4264,12.6869,1.7517,14.5435,8.3168,2.3251,8.2215-1.6936,14.3919-12.4927,18.5494l6.9689,6.0674a56.728,56.728,0,0,1,12.28-15.239c8.698-7.6829,18.8627-12.5952,29.8513-15.9618a116.5144,116.5144,0,0,1,40.7053-5.0566c19.5546,1.0687,37.9243,6.2032,54.1965,17.5447A32.6158,32.6158,0,0,1,319.183,78.9005a15.624,15.624,0,0,0-5.87,9.4168,41.9607,41.9607,0,0,0-.1189,15.1406,102.0383,102.0383,0,0,1,4.9-9.394c4.086-6.2413,10.29-9.2084,17.4268-10.719,7.0682-1.4961,13.4241-4.49,18.305-10.0391,1.0284-1.1692,1.8722-2.5008,2.9894-4.0126,2.2318,8.85,2.419,17.3034-2.1668,25.3121-4.6779,8.17-12.3046,11.5373-21.9585,12.5935,5.55,2.8692,6.7071,7.7818,7.9345,12.6558.227.9012.4579,1.8018.71,2.6963,1.9652,6.9752,5.3193,9.501,12.5811,9.4831,6.1056-.0151,6.1609.06,4.7012,6.0021a63.5164,63.5164,0,0,0-1.71,7.3037c-.7092,5.7916-4.2438,9.1143-9.2089,11.4313a112.4705,112.4705,0,0,1-36.3438,9.5626c-6.0978.6308-12.2581.6574-18.8153.9784-.2367,3.0349-.7414,6.3663-.7047,9.6917.0752,6.797.41,13.5921.704,20.3852.1132,2.6145-.5158,3.0849-3.0939,3.4375-4.7507.65-7.7539-1.1432-9.5979-5.5282-3.3484-7.9625-6.9263-15.8284-10.2749-23.7908-.6-1.4268-1.16-1.8979-2.7456-1.78a175.8808,175.8808,0,0,1-50.0014-2.9129c-3.4186-.7291-6.7448-1.884-10.1467-2.7056a2.2963,2.2963,0,0,0-2.0147.6286c-4.8955,8.6061-9.3037,17.4279-10.9211,27.3406-.345,2.1146-.4708,4.2664-.6611,6.4043-.1452,1.632-.9182,2.3517-2.632,2.3947-7.247.1816-7.2809.2362-10.3685-6.32-5.3729-11.4089-8.5414-23.479-10.7246-35.8516a265.9232,265.9232,0,0,1-3.7761-45.7473c-.0092-4.3391.81-8.6765,1.1456-13.0227a4.0863,4.0863,0,0,0-.6084-2.4456c-3.2607-4.7741-6.6865-9.4367-9.8889-14.2485-.8852-1.33-1.6378-2.25-3.3515-2.5286a14.8824,14.8824,0,0,1-10.7853-7.0507,8.342,8.342,0,0,1-1.163-6.9817c.2555-.825,1.1344-1.457,1.7284-2.1772.6463.5693,1.6014,1.0156,1.8859,1.7292C145.8271,69.4543,148.237,71.2077,151.5888,72.1545Zm8.724-.14c1.8725-.4,3.43-.6149,4.9124-1.074a5.5314,5.5314,0,0,0,3.6416-7.1476,3.91,3.91,0,0,0-2.2891-2.1791,5.5544,5.5544,0,0,0-6.997,6.0982C159.688,69.0436,160.0232,70.3571,160.3129,72.0143Zm164.2107,56.6009a4.9753,4.9753,0,0,0,4.91,4.9228,5.1079,5.1079,0,0,0,4.97-4.8957,4.94,4.94,0,1,0-9.88-.027Z" transform="translate(-136.5 -40)"/>
    <path class="cls-1" d="M230.6774,176.3067c.4489,4.89.8946,10.23,1.45,15.5587.2294,2.2018.71,4.3765,1.0464,6.5683.2548,1.6617-.3,2.3351-2.168,2.502-4.6448.4151-7.9525-1.1708-10.8628-4.9325-5.53-7.148-10.4749-14.4925-12.3213-23.5207a1.8012,1.8012,0,0,1-.0529-.4237Z" transform="translate(-136.5 -40)"/>
    <path class="cls-1" d="M300.9245,175.9063c2.9607-.3169,5.8143-.5025,8.6245-.9567,2.8067-.4537,5.57-1.1764,8.3361-1.7776.2061,3.8306.2928,7.7424.6605,11.6276.3634,3.84.9331,7.6649,1.5564,11.4729.569,3.4764-.2874,4.3264-3.73,4.6659-3.983.3929-6.1349-1.2309-7.7457-4.762A125.0709,125.0709,0,0,1,300.9245,175.9063Z" transform="translate(-136.5 -40)"/>
  </g>
  <rect class="cls-2" width="227" height="170"/>
</svg>
