<?xml version="1.0" encoding="utf-8"?>
<!-- Generator: Adobe Illustrator 18.1.1, SVG Export Plug-In . SVG Version: 6.00 Build 0)  -->
<svg version="1.1" id="Layer_1" xmlns="http://www.w3.org/2000/svg" xmlns:xlink="http://www.w3.org/1999/xlink" x="0px" y="0px"
	 width="128px" height="32px" viewBox="-181.4 267.7 128 32" enable-background="new -181.4 267.7 128 32" xml:space="preserve">
<g>
	<path fill="#ffffff" d="M-180.8,272.4c0-1,0-4.1,3.4-4.1c3.2,0,3.4,2.6,3.4,4.1v2.9c0,1,0,4.1-3.4,4.1s-3.4-3.1-3.4-4.1V272.4z
		 M-176.3,272.7c0-1.3,0-2.3-1.1-2.3s-1.1,1-1.1,2.3v2.4c0,1.3,0,2.3,1.1,2.3s1.1-1,1.1-2.3V272.7z"/>
	<path fill="#ffffff" d="M-166.5,268.7v1.4c0,0.2-0.2,0.3-0.3,0.3h-3.6c-0.1,0-0.2,0-0.2,0.2v1.5c0,0.1,0,0.2,0.2,0.2h0.7
		c3.6,0,4.1,2.3,4.1,3.5c0,2-1.4,3.5-3.9,3.5h-2.8c-0.6,0-0.5-0.3-0.5-0.5V269c0-0.2,0-0.5,0.5-0.5h5.6
		C-166.5,268.4-166.5,268.6-166.5,268.7z M-170.7,277.1c0,0.1,0.1,0.2,0.2,0.2h0.8c0.8,0,1.5-0.6,1.5-1.4c0-0.8-0.5-1.5-1.5-1.5
		h-0.8c-0.1,0-0.2,0.1-0.2,0.2V277.1z"/>
	<path fill="#ffffff" d="M-164.7,272.4c0-1,0-4.1,3.4-4.1c3.2,0,3.4,2.6,3.4,4.1v2.9c0,1,0,4.1-3.4,4.1s-3.4-3.1-3.4-4.1V272.4z
		 M-160.2,272.7c0-1.3,0-2.3-1.1-2.3s-1.1,1-1.1,2.3v2.4c0,1.3,0,2.3,1.1,2.3s1.1-1,1.1-2.3V272.7z"/>
	<path fill="#ffffff" d="M-153.5,268.4c3.5,0,3.9,2.2,3.9,3.3c0,3.2-3.3,3.2-3.7,3.2h-1c-0.1,0-0.2,0.1-0.2,0.2v3.6
		c0,0.5-0.3,0.5-0.5,0.5h-1.2c-0.3,0-0.5,0-0.5-0.5V269c0-0.3,0-0.5,0.5-0.5H-153.5z M-153.5,272.9c0.8,0,1.4-0.5,1.4-1.3
		c0-0.6-0.3-1.2-1.4-1.2h-0.9c-0.1,0-0.2,0.1-0.2,0.2v2.1c0,0.1,0.1,0.2,0.2,0.2H-153.5z"/>
	<path fill="#ffffff" d="M-147.2,268.4c0.3,0,0.4,0.2,0.5,0.3l1.3,3.9c0.1,0.4,0.2,0.5,0.2,0.5c0.1,0,0.2-0.5,0.3-0.8l1.1-3.6
		c0.1-0.3,0.4-0.3,0.4-0.3h1.7c0.4,0,0.3,0.3,0.3,0.4l-2.4,7.4c-0.9,2.6-1.9,3.1-3.6,3.1c-0.7,0-1.4,0-1.4-0.5v-1.3
		c0-0.3,0.2-0.3,0.4-0.3c1,0,0.6,0.1,1.1,0.1c0.5,0,0.9-0.4,0.9-0.8c0-0.1,0-0.3,0-0.4l-2.7-7.3c0-0.1,0-0.4,0.3-0.4H-147.2z"/>
	<path fill="#ffffff" d="M-134,268.4c0.5,0,0.5,0.3,0.5,0.5v8.1c0,0.2,0,0.2,0.2,0.2h0.3c0.3,0,0.5,0,0.5,0.5v2.9
		c0,0.5-0.3,0.5-0.5,0.5h-1.1c-0.5,0-0.5-0.3-0.5-0.5v-1.2c0-0.1-0.1-0.2-0.2-0.2h-3.8c-0.3,0-0.3,0.2-0.3,0.3v1.2
		c0,0.5-0.3,0.5-0.5,0.5h-1.1c-0.5,0-0.5-0.3-0.5-0.5v-2.9c0-0.5,0.3-0.5,0.5-0.5h0.1c0.4,0,0.5-0.9,0.6-1.3
		c0.5-2.4,0.6-4.7,0.7-5.9l0-1.2c0-0.5,0.3-0.4,0.5-0.4H-134z M-135.8,270.6c0-0.1,0-0.2-0.2-0.2h-0.8c-0.1,0-0.2,0-0.2,0.2l-0.1,1
		c-0.3,3.8-0.2,2.3-0.8,5.4c0,0,0,0.1,0,0.1c0,0,0.1,0.1,0.2,0.1h1.6c0.2,0,0.2-0.1,0.2-0.2V270.6z"/>
	<path fill="#ffffff" d="M-131.8,272.4c0-1,0-4.1,3.4-4.1c3.2,0,3.4,2.6,3.4,4.1v2.9c0,1,0,4.1-3.4,4.1c-3.4,0-3.4-3.1-3.4-4.1
		V272.4z M-127.3,272.7c0-1.3,0-2.3-1.1-2.3c-1.1,0-1.1,1-1.1,2.3v2.4c0,1.3,0,2.3,1.1,2.3c1.1,0,1.1-1,1.1-2.3V272.7z"/>
	<path fill="#ffffff" d="M-123.9,268.9c0-0.2,0-0.4,0.5-0.4h3c2.5,0,3.5,1.3,3.5,2.7c0,1-0.5,1.8-1.5,2.2v0.1
		c1.2,0.4,1.9,1.4,1.9,2.7c0,1.6-0.9,3.1-3.6,3.1h-3.3c-0.3,0-0.5-0.2-0.5-0.5V268.9z M-119.4,271.5c0-0.5-0.3-1-1.5-1h-0.5
		c-0.2,0-0.3,0.1-0.3,0.2v1.7c0,0.1,0.1,0.2,0.3,0.2h0.5C-119.8,272.5-119.4,272-119.4,271.5z M-120.7,277.3c1.2,0,1.7-0.6,1.7-1.3
		c0-0.7-0.5-1.4-1.7-1.4h-0.7c-0.2,0-0.2,0.2-0.2,0.3v2.3c0,0.1,0.1,0.2,0.2,0.2H-120.7z"/>
	<path fill="#ffffff" d="M-111.1,268.4c0.2,0,0.4,0,0.5,0.4l2.5,10c0,0.1,0.1,0.5-0.3,0.5h-1.5c-0.4,0-0.4-0.3-0.5-0.4l-0.3-1.2
		c-0.1-0.2-0.2-0.2-0.3-0.2h-2.1c-0.2,0-0.3,0.1-0.3,0.2l-0.3,1.2c0,0.2-0.1,0.4-0.4,0.4h-1.5c-0.4,0-0.3-0.3-0.3-0.5l2.4-10
		c0.1-0.4,0.3-0.4,0.5-0.4H-111.1z M-111.4,275.4c0.2,0,0.1-0.2,0.1-0.2l-0.7-2.7c0-0.1-0.1-0.2-0.1-0.2c0,0-0.1,0-0.1,0.2l-0.6,2.7
		c0,0.1-0.1,0.2,0.1,0.2H-111.4z"/>
	<path fill="#ffffff" d="M-105.6,268.4c0.5,0,0.5,0.3,0.5,0.5v3c0,0.1,0,0.3,0.2,0.3h1.7c0.1,0,0.2-0.1,0.2-0.3v-3
		c0-0.3,0-0.5,0.5-0.5h1.2c0.5,0,0.5,0.3,0.5,0.5v9.8c0,0.3,0,0.5-0.5,0.5h-1.2c-0.5,0-0.5-0.3-0.5-0.5v-4.1c0-0.2-0.1-0.2-0.2-0.2
		h-1.7c-0.1,0-0.2,0.1-0.2,0.2v4.1c0,0.5-0.3,0.5-0.5,0.5h-1.2c-0.3,0-0.5,0-0.5-0.5V269c0-0.3,0-0.5,0.5-0.5H-105.6z"/>
	<path fill="#ffffff" d="M-98.9,279.3c-0.3,0-0.5,0-0.5-0.5V269c0-0.3,0-0.5,0.5-0.5h1.2c0.5,0,0.5,0.3,0.5,0.5v5.1h0l2-5.1
		c0.1-0.2,0.2-0.5,0.6-0.5h1.3c0.5,0,0.5,0.3,0.5,0.5v9.8c0,0.3,0,0.5-0.5,0.5h-1.2c-0.5,0-0.5-0.3-0.5-0.5v-5.3h0l-2,5.3
		c-0.1,0.3-0.2,0.5-0.7,0.5H-98.9z"/>
	<path fill="#ffffff" d="M-91.5,269c0-0.3,0-0.5,0.5-0.5h5.1c0.5,0,0.5,0.3,0.5,0.5v1.1c0,0.4-0.3,0.4-0.5,0.4H-89
		c-0.1,0-0.3,0-0.3,0.2v1.6c0,0.1,0,0.3,0.2,0.3h2.4c0.3,0,0.4,0.2,0.4,0.3v1.4c0,0.1,0,0.3-0.3,0.3H-89c-0.2,0-0.2,0.1-0.2,0.3v2.2
		c0,0.1,0,0.2,0.2,0.2h3.5c0.4,0,0.4,0.2,0.4,0.4v1.1c0,0.3,0,0.5-0.5,0.5H-91c-0.3,0-0.5,0-0.5-0.5V269z"/>
	<path fill="#ffffff" d="M-174.1,285.4c0.5,0,0.5,0.3,0.5,0.5v8.1c0,0.2,0,0.2,0.2,0.2h0.3c0.3,0,0.5,0,0.5,0.5v2.9
		c0,0.5-0.3,0.5-0.5,0.5h-1.1c-0.5,0-0.5-0.3-0.5-0.5v-1.2c0-0.1-0.1-0.2-0.2-0.2h-3.8c-0.3,0-0.3,0.2-0.3,0.3v1.2
		c0,0.5-0.3,0.5-0.5,0.5h-1.1c-0.5,0-0.5-0.3-0.5-0.5v-2.9c0-0.5,0.3-0.5,0.5-0.5h0.1c0.4,0,0.5-0.9,0.6-1.3
		c0.5-2.5,0.6-4.7,0.7-5.9l0-1.2c0-0.5,0.3-0.4,0.5-0.4H-174.1z M-175.9,287.6c0-0.1,0-0.2-0.2-0.2h-0.8c-0.1,0-0.2,0-0.2,0.2
		l-0.1,1c-0.3,3.8-0.2,2.3-0.8,5.4c0,0,0,0.1,0,0.1c0,0,0.1,0.1,0.2,0.1h1.6c0.2,0,0.2-0.1,0.2-0.2V287.6z"/>
	<path fill="#ffffff" d="M-165.1,285.4c0.5,0,0.5,0.3,0.5,0.5v9.8c0,0.3,0,0.5-0.5,0.5h-1.2c-0.5,0-0.5-0.3-0.5-0.5v-8.1
		c0-0.2-0.1-0.2-0.3-0.2h-1.3c0,0-0.2,0-0.2,0.2l0,1.8c-0.1,3.6,0.3,6.9-2.9,6.9c-0.8,0-1.1-0.1-1.1-0.5v-1.3c0-0.2,0-0.3,0.4-0.3
		h0.2c1,0,1.1,0,1.2-5.7l0-2.5c0-0.3,0-0.5,0.5-0.5H-165.1z"/>
	<path fill="#ffffff" d="M-157.1,285.4c0.5,0,0.5,0.3,0.5,0.5v9.8c0,0.5-0.3,0.5-0.5,0.5h-1.2c-0.5,0-0.5-0.3-0.5-0.5v-3.8
		c0-0.1,0-0.2-0.2-0.2h-0.3c-0.1,0-0.3,0.1-0.3,0.2l-1.8,4c-0.1,0.2-0.2,0.3-0.6,0.3h-1.6c-0.3,0-0.5-0.3-0.3-0.6l2-4.2
		c0-0.1,0.1-0.2,0.1-0.2c0-0.2-0.3-0.2-0.6-0.4c-0.9-0.7-1.2-1.7-1.2-2.4c0-1.3,0.9-3,3.8-3H-157.1z M-158.9,287.7
		c0-0.2-0.1-0.3-0.3-0.3h-0.7c-1.1,0-1.4,0.6-1.4,1.2c0,0.7,0.6,1.2,1.4,1.2h0.7c0.2,0,0.2-0.1,0.2-0.3V287.7z"/>
	<path fill="#ffffff" d="M-148.3,285.4c0.2,0,0.4,0,0.5,0.4l2.5,10c0,0.1,0.1,0.5-0.3,0.5h-1.5c-0.4,0-0.4-0.3-0.5-0.4l-0.3-1.2
		c-0.1-0.2-0.2-0.2-0.3-0.2h-2.1c-0.2,0-0.3,0.1-0.3,0.2l-0.3,1.2c0,0.2-0.1,0.4-0.4,0.4h-1.5c-0.4,0-0.3-0.3-0.3-0.5l2.4-10
		c0.1-0.4,0.3-0.4,0.5-0.4H-148.3z M-148.6,292.4c0.2,0,0.1-0.2,0.1-0.2l-0.7-2.7c0-0.1-0.1-0.2-0.1-0.2s-0.1,0-0.1,0.2l-0.6,2.7
		c0,0.1-0.1,0.2,0.1,0.2H-148.6z"/>
	<path fill="#ffffff" d="M-144.9,285.9c0-0.2,0-0.4,0.5-0.4h3c2.5,0,3.5,1.3,3.5,2.7c0,1-0.5,1.8-1.5,2.2v0.1
		c1.2,0.4,1.9,1.4,1.9,2.7c0,1.6-0.9,3.1-3.6,3.1h-3.3c-0.3,0-0.5-0.2-0.5-0.5V285.9z M-140.4,288.5c0-0.5-0.3-1-1.5-1h-0.5
		c-0.2,0-0.3,0.1-0.3,0.2v1.7c0,0.1,0.1,0.2,0.3,0.2h0.5C-140.8,289.5-140.4,289-140.4,288.5z M-141.7,294.3c1.2,0,1.7-0.6,1.7-1.3
		c0-0.7-0.5-1.4-1.7-1.4h-0.7c-0.2,0-0.2,0.2-0.2,0.3v2.3c0,0.1,0.1,0.2,0.2,0.2H-141.7z"/>
	<path fill="#ffffff" d="M-130.2,285.4c0.3,0,0.3,0.2,0.3,0.4v1.4c0,0.2,0,0.3-0.3,0.3h-2c-0.2,0-0.3,0.1-0.3,0.3v8
		c0,0.3,0,0.5-0.5,0.5h-1.2c-0.5,0-0.5-0.3-0.5-0.5v-8c0-0.2-0.1-0.3-0.3-0.3h-2c-0.3,0-0.4-0.1-0.4-0.3v-1.5c0-0.2,0.1-0.3,0.3-0.3
		H-130.2z"/>
	<path fill="#ffffff" d="M-129.7,289.4c0-1,0-4.1,3.4-4.1c3.2,0,3.4,2.6,3.4,4.1v2.9c0,1,0,4.1-3.4,4.1c-3.4,0-3.4-3.1-3.4-4.1
		V289.4z M-125.2,289.7c0-1.3,0-2.3-1.1-2.3c-1.1,0-1.1,1-1.1,2.3v2.4c0,1.3,0,2.3,1.1,2.3c1.1,0,1.1-1,1.1-2.3V289.7z"/>
	<path fill="#ffffff" d="M-119.9,295.7c0,0.5-0.3,0.5-0.5,0.5h-1.2c-0.3,0-0.5,0-0.5-0.5V286c0-0.3,0-0.5,0.5-0.5h1.4
		c0.4,0,0.5,0.3,0.6,0.4l1.7,3.3c0,0.1,0.1,0.3,0.2,0.3s0.1-0.2,0.2-0.2l1.7-3.3c0.1-0.1,0.2-0.4,0.6-0.4h1.3c0.5,0,0.5,0.3,0.5,0.5
		v9.8c0,0.5-0.3,0.5-0.5,0.5h-1.2c-0.5,0-0.5-0.3-0.5-0.5v-5.5c0,0,0-0.1-0.1-0.1c0,0,0,0,0,0l-1.2,2.9c-0.1,0.2-0.2,0.4-0.4,0.4
		h-0.5c-0.2,0-0.3-0.2-0.4-0.4l-1.2-3c0-0.1-0.1,0-0.1,0V295.7z"/>
	<path fill="#ffffff" d="M-108.4,285.4c0.2,0,0.4,0,0.5,0.4l2.5,10c0,0.1,0.1,0.5-0.3,0.5h-1.5c-0.4,0-0.4-0.3-0.5-0.4l-0.3-1.2
		c-0.1-0.2-0.2-0.2-0.3-0.2h-2.1c-0.2,0-0.3,0.1-0.3,0.2l-0.3,1.2c0,0.2-0.1,0.4-0.4,0.4h-1.5c-0.4,0-0.3-0.3-0.3-0.5l2.4-10
		c0.1-0.4,0.3-0.4,0.5-0.4H-108.4z M-108.8,292.4c0.2,0,0.1-0.2,0.1-0.2l-0.7-2.7c0-0.1-0.1-0.2-0.1-0.2s-0.1,0-0.1,0.2l-0.6,2.7
		c0,0.1-0.1,0.2,0.1,0.2H-108.8z"/>
	<path fill="#ffffff" d="M-98.4,285.4c0.3,0,0.3,0.2,0.3,0.4v1.4c0,0.2,0,0.3-0.3,0.3h-2c-0.2,0-0.3,0.1-0.3,0.3v8
		c0,0.3,0,0.5-0.5,0.5h-1.2c-0.5,0-0.5-0.3-0.5-0.5v-8c0-0.2-0.1-0.3-0.3-0.3h-2c-0.3,0-0.4-0.1-0.4-0.3v-1.5c0-0.2,0.1-0.3,0.3-0.3
		H-98.4z"/>
	<path fill="#ffffff" d="M-97.3,296.3c-0.3,0-0.5,0-0.5-0.5V286c0-0.3,0-0.5,0.5-0.5h1.2c0.5,0,0.5,0.3,0.5,0.5v5.1h0l2-5.1
		c0.1-0.2,0.2-0.5,0.6-0.5h1.3c0.5,0,0.5,0.3,0.5,0.5v9.8c0,0.3,0,0.5-0.5,0.5h-1.2c-0.5,0-0.5-0.3-0.5-0.5v-5.3h0l-2,5.3
		c-0.1,0.3-0.2,0.5-0.7,0.5H-97.3z"/>
	<path fill="#ffffff" d="M-90.3,285.9c0-0.3,0.1-0.5,2.1-0.5c1.4,0,3.5,0.2,3.5,3c0,1.5-0.7,2-1.1,2.2v0c1.3,0.5,1.3,1.8,1.3,2.7
		c0,1.4-0.2,3.1-3.4,3.1c-2.3,0-2.4-0.3-2.4-0.7v-1.4c0-0.1,0-0.3,0.3-0.3c0.2,0,0.3,0,0.6,0.1c0.4,0.1,0.7,0.1,1.1,0.1
		c1.3,0,1.4-1,1.4-1.3c0-1.4-1-1.5-1.4-1.5h-0.7c-0.3,0-0.5,0-0.5-0.5v-1c0-0.3,0-0.5,0.5-0.5h0.8c0.6,0,1.2-0.3,1.2-0.9
		c0-0.5-0.3-1.1-1.5-1.1c-0.4,0-0.6,0-0.8,0.1c-0.2,0-0.3,0.1-0.5,0.1c-0.2,0-0.3,0-0.3-0.4V285.9z"/>
	<path fill="#ffffff" d="M-79.5,285.4c0.2,0,0.4,0,0.5,0.4l2.5,10c0,0.1,0.1,0.5-0.3,0.5h-1.5c-0.4,0-0.4-0.3-0.5-0.4l-0.3-1.2
		c-0.1-0.2-0.2-0.2-0.3-0.2h-2.1c-0.2,0-0.3,0.1-0.3,0.2l-0.3,1.2c0,0.2-0.1,0.4-0.4,0.4H-84c-0.4,0-0.3-0.3-0.3-0.5l2.4-10
		c0.1-0.4,0.3-0.4,0.5-0.4H-79.5z M-79.8,292.4c0.2,0,0.1-0.2,0.1-0.2l-0.7-2.7c0-0.1-0.1-0.2-0.1-0.2c0,0-0.1,0-0.1,0.2l-0.6,2.7
		c0,0.1-0.1,0.2,0.1,0.2H-79.8z"/>
	<path fill="#ffffff" d="M-73.8,294c0,0.1,0.1,0.2,0.2,0.2h1.7c0.2,0,0.2-0.1,0.2-0.2v-8c0-0.3,0-0.5,0.5-0.5h1.2
		c0.5,0,0.5,0.3,0.5,0.5v8.1c0,0.2,0,0.2,0.2,0.2h0.3c0.3,0,0.5,0,0.5,0.5v2.9c0,0.5-0.3,0.5-0.5,0.5H-70c-0.5,0-0.5-0.3-0.5-0.5
		v-1.2c0-0.1-0.1-0.2-0.2-0.2h-4.8c-0.3,0-0.5,0-0.5-0.5V286c0-0.3,0-0.5,0.5-0.5h1.2c0.5,0,0.5,0.3,0.5,0.5V294z"/>
	<path fill="#ffffff" d="M-67.5,296.3c-0.3,0-0.5,0-0.5-0.5V286c0-0.3,0-0.5,0.5-0.5h1.2c0.5,0,0.5,0.3,0.5,0.5v5.1h0l2-5.1
		c0.1-0.2,0.2-0.5,0.6-0.5h1.3c0.5,0,0.5,0.3,0.5,0.5v9.8c0,0.3,0,0.5-0.5,0.5H-63c-0.5,0-0.5-0.3-0.5-0.5v-5.3h0l-2,5.3
		c-0.1,0.3-0.2,0.5-0.7,0.5H-67.5z"/>
	<path fill="#ffffff" d="M-59.9,296.3c-0.3,0-0.5,0-0.5-0.5V286c0-0.3,0-0.5,0.5-0.5h1.2c0.5,0,0.5,0.3,0.5,0.5v5.1h0l2-5.1
		c0.1-0.2,0.2-0.5,0.6-0.5h1.3c0.5,0,0.5,0.3,0.5,0.5v9.8c0,0.3,0,0.5-0.5,0.5h-1.2c-0.5,0-0.5-0.3-0.5-0.5v-5.3h0l-2,5.3
		c-0.1,0.3-0.2,0.5-0.7,0.5H-59.9z"/>
</g>
</svg>
